<svg width="40" height="37" viewBox="0 0 40 37" fill="none" xmlns="http://www.w3.org/2000/svg">
<path id="Vector" d="M39.8339 19.4914C39.5374 18.6758 38.8999 17.9993 38.0593 17.6081C37.2188 17.217 36.2428 17.1427 35.3426 17.4014L31.7175 18.4767C30.929 16.2553 30.0849 13.8925 29.2919 11.6751L29.3053 11.6711L29.2964 11.6549L32.8792 10.5978C33.7754 10.327 34.5187 9.74652 34.9487 8.98157C35.3788 8.21661 35.4612 7.32848 35.1782 6.50873C34.8802 5.6927 34.2414 5.01609 33.3998 4.62503C32.5582 4.23398 31.5814 4.15988 30.6802 4.41873L27.0796 5.48394L25.9268 2.24181C25.6293 1.42593 24.9909 0.749344 24.1497 0.358265C23.3084 -0.0328135 22.3318 -0.106973 21.431 0.151812C20.5345 0.42251 19.7911 1.00351 19.3617 1.76912C18.9323 2.53473 18.8514 3.4234 19.1365 4.24288L20.2959 7.49511L12.8148 9.70235L11.6509 6.44607C11.3538 5.6308 10.7163 4.9546 9.87589 4.56354C9.03552 4.17249 8.05982 4.09796 7.15957 4.35607C6.26279 4.62592 5.51892 5.20636 5.08905 5.97169C4.65917 6.73702 4.57789 7.62564 4.86281 8.44511L6.02674 11.7115L2.33504 12.805C1.48873 13.087 0.791519 13.6506 0.384186 14.3822C-0.0231463 15.1138 -0.11025 15.9588 0.140464 16.7465C0.695773 18.4767 2.69933 19.5217 4.53629 18.9537C4.54962 18.9537 5.99786 18.5313 8.23465 17.8703L10.6758 24.7144H10.6713V24.7184L6.96188 25.82C6.11549 26.1011 5.41816 26.6645 5.0111 27.3959C4.60404 28.1274 4.51768 28.9723 4.76952 29.7595C5.32483 31.4917 7.32394 32.5367 9.16534 31.9687C9.18089 31.9687 10.6291 31.5422 12.8637 30.8813L12.8704 30.8914C12.8765 30.891 12.8825 30.8896 12.8881 30.8874L14.0854 34.2366C14.3939 35.0072 15.0127 35.6424 15.8164 36.0136C16.6202 36.3847 17.5489 36.4641 18.4146 36.2356C20.3182 35.7303 21.4643 33.9092 20.8446 32.2355C20.8446 32.2234 20.3804 30.9136 19.6607 28.8923L19.654 28.8742C22.1063 28.1505 24.7095 27.3804 27.1529 26.6548L28.359 30.0263C28.6684 30.7963 29.2873 31.4309 30.0908 31.8019C30.8943 32.1729 31.8226 32.2528 32.6882 32.0253C34.5896 31.518 35.7402 29.6968 35.1138 28.0252C35.1138 28.0111 34.6496 26.6932 33.9254 24.6638L33.9677 24.6517L33.961 24.6376L37.535 23.5825C38.4316 23.3117 39.1753 22.7309 39.6054 21.9655C40.0355 21.2001 40.1176 20.3114 39.8339 19.4914ZM17.455 22.7093L15.0183 15.8834C15.0221 15.8832 15.0258 15.8825 15.0294 15.8814V15.8693C17.4683 15.1497 20.0672 14.3836 22.4994 13.662L24.9383 20.4879L17.455 22.7093Z" fill="black"/>
</svg>
