<svg width="24" height="24" viewBox="0 0 24 24" fill="none" xmlns="http://www.w3.org/2000/svg">
<path d="M13.0642 6.68504L13.8087 6.37922C14.4141 6.13814 15.1955 5.8939 16.1192 6.04915C18.01 6.36695 19.3145 7.38793 20.0914 8.74213C20.3908 9.26401 20.1489 9.95146 19.5887 10.1709C18.6569 10.5358 17.9999 11.4424 17.9999 12.4999C17.9999 13.6076 18.7211 14.5496 19.7222 14.8768C20.2405 15.0463 20.5317 15.6216 20.3615 16.1396C19.9201 17.4823 19.2836 18.7212 18.5305 19.7212C17.7871 20.7085 16.879 21.5295 15.868 21.9297C15.2088 22.1906 14.5002 22.0932 13.8227 21.9251L13.4206 21.8181L12.8237 21.6446C12.5528 21.5663 12.2747 21.4982 11.9999 21.4982C11.7251 21.4982 11.447 21.5663 11.1761 21.6446L10.5793 21.8181L10.1772 21.9251C9.49961 22.0932 8.79107 22.1906 8.13188 21.9297C6.85861 21.4257 5.73553 20.2497 4.88738 18.8633C4.02419 17.4522 3.37005 15.7027 3.10335 13.8774C2.87624 12.3229 2.99884 10.5784 3.71813 9.10178C4.45891 7.58105 5.81382 6.39659 7.8806 6.04915C8.72039 5.90798 9.44255 6.09701 10.0218 6.31369L10.352 6.44459L10.9357 6.68504C11.3354 6.84166 11.6515 6.93389 11.9999 6.93389C12.3484 6.93389 12.6645 6.84166 13.0642 6.68504ZM11.7677 2.76766C12.744 1.79135 14.2426 1.707 14.5961 2.06056C14.9497 2.41411 14.8653 3.91267 13.889 4.88898C12.9127 5.86529 11.4141 5.94964 11.0606 5.59609C10.707 5.24254 10.7914 3.74397 11.7677 2.76766Z" fill="white"/>
</svg>
