<svg width="40" height="40" viewBox="0 0 40 40" fill="none" xmlns="http://www.w3.org/2000/svg">
<path d="M27.9183 5.93331V3.33331C27.9183 2.64998 27.3517 2.08331 26.6683 2.08331C25.985 2.08331 25.4183 2.64998 25.4183 3.33331V5.83331H14.585V3.33331C14.585 2.64998 14.0183 2.08331 13.335 2.08331C12.6517 2.08331 12.085 2.64998 12.085 3.33331V5.93331C7.585 6.34998 5.40168 9.03331 5.06835 13.0166C5.03502 13.5 5.43502 13.9 5.90168 13.9H34.1017C34.585 13.9 34.985 13.4833 34.935 13.0166C34.6017 9.03331 32.4183 6.34998 27.9183 5.93331Z" fill="white"/>
<path opacity="0.4" d="M33.3333 16.4C34.25 16.4 35 17.15 35 18.0666V28.3333C35 33.3333 32.5 36.6666 26.6667 36.6666H13.3333C7.5 36.6666 5 33.3333 5 28.3333V18.0666C5 17.15 5.75 16.4 6.66667 16.4H33.3333Z" fill="white"/>
<path d="M14.1667 24.9999C13.95 24.9999 13.7333 24.95 13.5333 24.8666C13.3333 24.7833 13.15 24.6666 12.9833 24.5166C12.8333 24.3499 12.7166 24.1666 12.6333 23.9666C12.55 23.7666 12.5 23.5499 12.5 23.3333C12.5 23.1166 12.55 22.8999 12.6333 22.6999C12.7166 22.4999 12.8333 22.3166 12.9833 22.15C13.15 22 13.3333 21.8833 13.5333 21.7999C13.9333 21.6333 14.4 21.6333 14.8 21.7999C15 21.8833 15.1833 22 15.35 22.15C15.5 22.3166 15.6167 22.4999 15.7 22.6999C15.7834 22.8999 15.8333 23.1166 15.8333 23.3333C15.8333 23.5499 15.7834 23.7666 15.7 23.9666C15.6167 24.1666 15.5 24.3499 15.35 24.5166C15.1833 24.6666 15 24.7833 14.8 24.8666C14.6 24.95 14.3833 24.9999 14.1667 24.9999Z" fill="white"/>
<path d="M19.9987 25C19.782 25 19.5654 24.95 19.3654 24.8667C19.1654 24.7834 18.982 24.6667 18.8154 24.5167C18.5154 24.2 18.332 23.7667 18.332 23.3333C18.332 22.9 18.5154 22.4667 18.8154 22.15C18.982 22 19.1654 21.8833 19.3654 21.8C19.7654 21.6166 20.232 21.6166 20.632 21.8C20.832 21.8833 21.0153 22 21.182 22.15C21.482 22.4667 21.6654 22.9 21.6654 23.3333C21.6654 23.7667 21.482 24.2 21.182 24.5167C21.0153 24.6667 20.832 24.7834 20.632 24.8667C20.432 24.95 20.2154 25 19.9987 25Z" fill="white"/>
<path d="M14.1667 30.8333C13.95 30.8333 13.7333 30.7833 13.5333 30.7C13.3333 30.6167 13.15 30.5 12.9833 30.35C12.6833 30.0333 12.5 29.6 12.5 29.1667C12.5 28.7333 12.6833 28.3 12.9833 27.9833C13.15 27.8333 13.3333 27.7166 13.5333 27.6333C13.9333 27.4666 14.4 27.4666 14.8 27.6333C15 27.7166 15.1833 27.8333 15.35 27.9833C15.65 28.3 15.8333 28.7333 15.8333 29.1667C15.8333 29.6 15.65 30.0333 15.35 30.35C15.1833 30.5 15 30.6167 14.8 30.7C14.6 30.7833 14.3833 30.8333 14.1667 30.8333Z" fill="white"/>
</svg>
