<svg width="70" height="70" viewBox="0 0 70 70" fill="none" xmlns="http://www.w3.org/2000/svg">
<path d="M70 36.6406C70 39.0879 69.4121 41.3574 68.2363 43.4355C67.0605 45.5137 65.4883 47.1406 63.5059 48.2754C63.5605 48.6445 63.5879 49.2188 63.5879 49.998C63.5879 53.7031 62.3438 56.8477 59.8828 59.4453C57.4082 62.0566 54.4277 63.3555 50.9414 63.3555C49.3828 63.3555 47.8926 63.0684 46.4844 62.4941C45.3906 64.7363 43.8184 66.541 41.7539 67.9219C39.7031 69.3164 37.4473 70 35 70C32.498 70 30.2285 69.3301 28.2051 67.9629C26.168 66.6094 24.6094 64.791 23.5156 62.4941C22.1074 63.0684 20.6309 63.3555 19.0586 63.3555C15.5723 63.3555 12.5781 62.0566 10.0762 59.4453C7.57422 56.8477 6.33008 53.6895 6.33008 49.998C6.33008 49.5879 6.38477 49.0137 6.48047 48.2754C4.49805 47.127 2.92578 45.5137 1.75 43.4355C0.587891 41.3574 0 39.0879 0 36.6406C0 34.043 0.65625 31.6504 1.95508 29.4902C3.25391 27.3301 5.00391 25.7305 7.19141 24.6914C6.61719 23.1328 6.33008 21.5605 6.33008 20.002C6.33008 16.3105 7.57422 13.1523 10.0762 10.5547C12.5781 7.95703 15.5723 6.64453 19.0586 6.64453C20.6172 6.64453 22.1074 6.93164 23.5156 7.50586C24.6094 5.26367 26.1816 3.45898 28.2461 2.07812C30.2969 0.697266 32.5527 0 35 0C37.4473 0 39.7031 0.697266 41.7539 2.06445C43.8047 3.44531 45.3906 5.25 46.4844 7.49219C47.8926 6.91797 49.3691 6.63086 50.9414 6.63086C54.4277 6.63086 57.4082 7.92969 59.8828 10.541C62.3574 13.1523 63.5879 16.2969 63.5879 19.9883C63.5879 21.7109 63.3281 23.2695 62.8086 24.6777C64.9961 25.7168 66.7461 27.3164 68.0449 29.4766C69.3438 31.6504 70 34.043 70 36.6406ZM33.5098 47.1816L47.9609 25.5391C48.3301 24.9648 48.4395 24.3359 48.3164 23.666C48.1797 22.9961 47.8379 22.4629 47.2637 22.1074C46.6895 21.7383 46.0605 21.6152 45.3906 21.7109C44.707 21.8203 44.1602 22.1484 43.75 22.7227L31.0215 41.8633L25.1562 36.0117C24.6367 35.4922 24.0352 35.2461 23.3652 35.2734C22.6816 35.3008 22.0938 35.5469 21.5742 36.0117C21.1094 36.4766 20.877 37.0645 20.877 37.7754C20.877 38.4727 21.1094 39.0605 21.5742 39.5391L29.627 47.5918L30.0234 47.9062C30.4883 48.2207 30.9668 48.3711 31.4316 48.3711C32.3477 48.3574 33.0449 47.9746 33.5098 47.1816Z" fill="#D493F7"/>
</svg>
