<svg width="55" height="48" viewBox="0 0 55 48" fill="none" xmlns="http://www.w3.org/2000/svg">
<path d="M34.4158 7.02779C35.0104 9.54804 37.2735 11.4255 39.9759 11.4255C43.1309 11.4255 45.6886 8.86776 45.6886 5.71276C45.6886 2.55775 43.1309 0 39.9759 0C37.2173 0 34.9166 1.95514 34.381 4.55574C29.761 5.05122 26.1533 8.96953 26.1533 13.7181C26.1533 13.7288 26.1533 13.7369 26.1533 13.7476C21.1289 13.9592 16.541 15.3894 12.8986 17.6471C11.546 16.5999 9.84801 15.9759 8.00536 15.9759C3.58353 15.9759 0 19.5594 0 23.9813C0 27.1898 1.8855 29.9538 4.60931 31.2313C4.87446 40.5249 15.001 48 27.4576 48C39.9143 48 50.0542 40.5169 50.306 31.2153C53.0084 29.9297 54.8778 27.1738 54.8778 23.9839C54.8778 19.5621 51.2943 15.9786 46.8724 15.9786C45.0378 15.9786 43.3478 16.5973 41.998 17.6364C38.3234 15.3626 33.6846 13.9324 28.6093 13.7422C28.6093 13.7342 28.6093 13.7288 28.6093 13.7208C28.6093 10.3194 31.1376 7.49649 34.4158 7.03314V7.02779ZM12.5772 29.0619C12.7111 26.1587 14.6394 23.9304 16.8812 23.9304C19.1229 23.9304 20.837 26.2846 20.703 29.1878C20.5691 32.0911 18.8952 33.1463 16.6508 33.1463C14.4064 33.1463 12.4433 31.9652 12.5772 29.0619ZM38.0368 23.9304C40.2812 23.9304 42.2096 26.1587 42.3408 29.0619C42.4747 31.9652 40.5089 33.1463 38.2672 33.1463C36.0254 33.1463 34.3488 32.0937 34.2149 29.1878C34.081 26.2846 35.7924 23.9304 38.0368 23.9304ZM35.3693 35.779C35.7898 35.8219 36.0576 36.2585 35.8942 36.6495C34.5149 39.9464 31.2581 42.2631 27.4576 42.2631C23.6572 42.2631 20.4031 39.9464 19.0211 36.6495C18.8577 36.2585 19.1255 35.8219 19.546 35.779C22.01 35.53 24.6749 35.3934 27.4576 35.3934C30.2404 35.3934 32.9026 35.53 35.3693 35.779Z" fill="white"/>
</svg>
